<?xml version="1.0" encoding="utf-8"?>
<!-- Generator: Adobe Illustrator 26.1.0, SVG Export Plug-In . SVG Version: 6.00 Build 0)  -->
<svg version="1.1" id="Layer_1" xmlns="http://www.w3.org/2000/svg" xmlns:xlink="http://www.w3.org/1999/xlink" x="0px" y="0px"
	 viewBox="0 0 96 96" style="enable-background:new 0 0 96 96;" xml:space="preserve">
<style type="text/css">
	.st0{fill:#4FA8D8;}
	.st1{fill:#FFFFFF;}
</style>
<path class="st0" d="M87.3,96H8.7C3.9,96,0,92.1,0,87.3V8.7C0,3.9,3.9,0,8.7,0h78.6C92.1,0,96,3.9,96,8.7v78.6
	C96,92.1,92.1,96,87.3,96z"/>
<g>
	<path class="st1" d="M67.4,65.5c2.2,2.4,4.3,4.5,6.2,6.6c-10.3,13.5-33.3,14.6-47.4,2.6C10.9,61.5,9.7,38.1,23.9,23.6
		c13.6-14,36.6-14.2,50,0.1c-2.1,2.2-4.1,4.4-6.5,6.9c-6.6-5.8-14-8.9-22.8-7.1c-5.9,1.2-10.7,4.2-14.4,8.9c-7.7,9.8-7,24,1.6,33.1
		C41.2,75.3,53.9,75.4,67.4,65.5z"/>
	<path class="st1" d="M39.8,48.5c3.3-3.2,6.2-6.1,9.6-9.3c2.8,3.2,5.6,6.5,8.7,9.9c-2.6,2.5-5.6,5.6-8.9,8.8
		C46.1,54.8,43.1,51.8,39.8,48.5z"/>
</g>
</svg>
